# xmcd CD database file
#
# Track frame offsets:
#	150
#	17077
#	32065
#	48570
#	63585
#	84020
#	97070
#	112535
#	130060
#	145785
#	158980
#	172075
#	188605
#	223812
#	246570
#	265050
#	281185
#	297307
#
# Disc length: 4171 seconds
#
# Revision: 0
# Processed by: cddbd v1.5.1PL2 Copyright (c) Steve Scherf et al.
# Submitted via: CDex 1.51
#
DISCID=0a104912
DTITLE=Various Artist - J-popヒットパレード ５
DYEAR=1998
DGENRE=J-pop
TTITLE0=木綿のハンカチーフ／大田裕美
TTITLE1=春一番／キャンディーズ
TTITLE2=白いくつ下は似合わない／アグネス・チャン
TTITLE3=時の過ぎゆくままに／沢田研二
TTITLE4=シクラメンのかほり／布施明
TTITLE5=ぼくの妹に／加山雄三
TTITLE6=ウィンクでさよなら／沢田研二
TTITLE7=逢いたくて北国へ／小柳ルミ子
TTITLE8=年下の男の子／キャンディーズ
TTITLE9=好きよキャプテン／ザ・リリーズ
TTITLE10=恋のシーソーゲーム／アグネス・チャン
TTITLE11=恋のリクエスト／あいざき進也
TTITLE12=海　その愛／加山雄三
TTITLE13=お前に惚れた／森進一
TTITLE14=コバルトの季節の中で／沢田研二
TTITLE15=落葉が雪に／布施明
TTITLE16=おまえさん／木の実ナナ
TTITLE17=メランコリー／梓みちよ
EXTD=YEAR: 1998
EXTT0=
EXTT1=
EXTT2=
EXTT3=
EXTT4=
EXTT5=
EXTT6=
EXTT7=
EXTT8=
EXTT9=
EXTT10=
EXTT11=
EXTT12=
EXTT13=
EXTT14=
EXTT15=
EXTT16=
EXTT17=
PLAYORDER=
